<?xml version="1.0" encoding="utf-8"?>
<!-- Generator: Adobe Illustrator 28.0.0, SVG Export Plug-In . SVG Version: 6.00 Build 0)  -->
<svg version="1.1" id="Layer_1" xmlns="http://www.w3.org/2000/svg" xmlns:xlink="http://www.w3.org/1999/xlink" x="0px" y="0px"
	 viewBox="0 0 106 157.6" style="enable-background:new 0 0 106 157.6;" xml:space="preserve">
<style type="text/css">
	.st0{fill:#00A1CD;}
</style>
<path class="st0" d="M42,33.8v7.9H19v18.9h23v7.9H11.1V33.8H42 M47.5,28.3H10.6c-2.8,0-5,2.2-5,5V74h41.9V55.1h-23v-7.9h23
	L47.5,28.3L47.5,28.3z"/>
<path class="st0" d="M68,11.2v22.7h26.8v34.6H60.1V11.2H68 M68,60.6h18.9V41.7H68V60.6 M68.5,5.7H54.6V74h45.7V33.3c0-2.8-2.2-5-5-5
	H73.5V10.9C73.5,8.1,71.3,5.8,68.5,5.7L68.5,5.7z M73.5,55.1v-7.9h7.9v7.9H73.5z"/>
<path class="st0" d="M94.7,86.6v8H19.1v18h75.7v33.9H11.2v-7.9h75.8v-18.1H11.2V86.6H94.7 M100.2,81.1H5.7V126h75.8v7.1H5.7V147
	c0,2.8,2.2,5,5,5h84.6c2.8,0,5-2.2,5-5v-39.9H24.6v-7h75.7V81.1L100.2,81.1z"/>
</svg>
