<?xml version="1.0" encoding="utf-8"?>
<!-- Generator: Adobe Illustrator 28.0.0, SVG Export Plug-In . SVG Version: 6.00 Build 0)  -->
<svg version="1.1" id="Layer_1" xmlns="http://www.w3.org/2000/svg" xmlns:xlink="http://www.w3.org/1999/xlink" x="0px" y="0px"
	 viewBox="0 0 148 160" style="enable-background:new 0 0 148 160;" xml:space="preserve">
<style type="text/css">
	.st0{fill:#ED1B34;}
</style>
<path id="_x38_2d6a" class="st0" d="M111,105.4c5.2,0,11.8-0.1,16.4,6.1c3.1,4.2,3.6,9,3.6,13.7c0,19.6-12.5,20-21.6,20.2h-5.2v-40
	L111,105.4z M87,91v68h26.8c7.1-0.1,26.1-0.5,32.4-21.5c0.9-2.9,1.7-7.2,1.7-13.1c0-9.5-2.7-19.1-9.7-25.4c-8.7-7.7-21.2-7.9-29.5-8
	H87z"/>
<path id="_x38_2d6b" class="st0" d="M0.8,91h19.6L35,114.3c0.8-1.8,1.7-3.5,2.8-5.1L49.5,91h19.4l-25.7,35.8v32.2H26.4v-31.7L0.8,91
	"/>
<path id="_x38_2d6c" class="st0" d="M145.1,0.3v38c-0.1,6.6-0.2,13.1-4,19.3c-7.3,11.8-22.5,12.3-25.3,12.3
	c-5.1,0-11.2-1.2-15.8-3.7c-13.1-6.8-13.1-18.7-13-28v-38h17.1v42.4c0,3.5,0.1,6.4,1.3,8.5c2.1,3.6,6.7,4.6,11,4.6
	c11.6,0,11.6-7.9,11.7-13.2V0.3H145.1"/>
<path id="_x38_2d6d" class="st0" d="M9.1,0.3H64v13.3L26.9,55h36.9v13.4H5.9V55.6l37.7-42H9.1V0.3"/>
</svg>
